<svg xmlns="http://www.w3.org/2000/svg" xmlns:xlink="http://www.w3.org/1999/xlink" width="400" zoomAndPan="magnify" viewBox="0 0 300 89.999999" height="120" preserveAspectRatio="xMidYMid meet" version="1.0"><defs><g/><clipPath id="2473072fa8"><path d="M 255 23 L 278 23 L 278 46 L 255 46 Z M 255 23 " clip-rule="nonzero"/></clipPath><clipPath id="dd5405932b"><path d="M 251.035156 26.578125 L 266.871094 11.9375 L 288.554688 35.402344 L 272.71875 50.039062 Z M 251.035156 26.578125 " clip-rule="nonzero"/></clipPath><clipPath id="1a7edbfb31"><path d="M 251.035156 26.578125 L 266.871094 11.9375 L 288.554688 35.402344 L 272.71875 50.039062 Z M 251.035156 26.578125 " clip-rule="nonzero"/></clipPath><clipPath id="7d0d0fac8c"><path d="M 267 12 L 290 12 L 290 36 L 267 36 Z M 267 12 " clip-rule="nonzero"/></clipPath><clipPath id="2b0e7c546e"><path d="M 262.398438 16.074219 L 278.234375 1.433594 L 299.921875 24.898438 L 284.082031 39.535156 Z M 262.398438 16.074219 " clip-rule="nonzero"/></clipPath><clipPath id="c7692f03d8"><path d="M 262.398438 16.074219 L 278.234375 1.433594 L 299.921875 24.898438 L 284.082031 39.535156 Z M 262.398438 16.074219 " clip-rule="nonzero"/></clipPath></defs><rect x="-30" width="360" fill="#ffffff" y="-9" height="107.999999" fill-opacity="1"/><rect x="-30" width="360" fill="#ffffff" y="-9" height="107.999999" fill-opacity="1"/><g clip-path="url(#2473072fa8)"><g clip-path="url(#dd5405932b)"><g clip-path="url(#1a7edbfb31)"><path fill="#13b9fd" d="M 277.878906 23.957031 L 258.683594 23.105469 C 254.976562 22.941406 254.347656 30.164062 258.742188 30.28125 L 270.6875 30.605469 L 269.773438 42.625 C 269.496094 46.285156 276.632812 46.671875 276.835938 42.949219 Z M 277.878906 23.957031 " fill-opacity="1" fill-rule="nonzero"/></g></g></g><g clip-path="url(#7d0d0fac8c)"><g clip-path="url(#2b0e7c546e)"><g clip-path="url(#c7692f03d8)"><path fill="#13b9fd" d="M 289.242188 13.457031 L 270.046875 12.601562 C 266.339844 12.4375 265.714844 19.660156 270.105469 19.777344 L 282.050781 20.101562 L 281.136719 32.121094 C 280.859375 35.78125 287.996094 36.167969 288.203125 32.449219 Z M 289.242188 13.457031 " fill-opacity="1" fill-rule="nonzero"/></g></g></g><g fill="#373643" fill-opacity="1"><g transform="translate(1.0374, 67.957709)"><g><path d="M 23.921875 -26.1875 C 24.816406 -26.1875 25.53125 -25.9375 26.0625 -25.4375 C 26.59375 -24.945312 26.859375 -24.304688 26.859375 -23.515625 L 26.859375 -2.671875 C 26.859375 -1.878906 26.59375 -1.234375 26.0625 -0.734375 C 25.53125 -0.242188 24.816406 0 23.921875 0 C 23.066406 0 22.398438 -0.195312 21.921875 -0.59375 C 21.441406 -0.988281 21.148438 -1.507812 21.046875 -2.15625 C 19.878906 -1.226562 18.570312 -0.550781 17.125 -0.125 C 15.6875 0.300781 14.316406 0.515625 13.015625 0.515625 C 10.546875 0.515625 8.410156 -0.046875 6.609375 -1.171875 C 4.804688 -2.304688 3.425781 -3.90625 2.46875 -5.96875 C 1.507812 -8.03125 1.03125 -10.429688 1.03125 -13.171875 C 1.03125 -15.847656 1.5625 -18.195312 2.625 -20.21875 C 3.6875 -22.238281 5.171875 -23.820312 7.078125 -24.96875 C 8.984375 -26.125 11.1875 -26.703125 13.6875 -26.703125 C 14.78125 -26.703125 15.992188 -26.492188 17.328125 -26.078125 C 18.671875 -25.671875 19.910156 -25.019531 21.046875 -24.125 C 21.179688 -24.75 21.488281 -25.25 21.96875 -25.625 C 22.445312 -26 23.097656 -26.1875 23.921875 -26.1875 Z M 13.640625 -4.6875 C 15.148438 -4.6875 16.609375 -5.019531 18.015625 -5.6875 C 19.421875 -6.351562 20.414062 -7.335938 21 -8.640625 L 21 -17.546875 C 20.34375 -18.816406 19.363281 -19.789062 18.0625 -20.46875 C 16.757812 -21.15625 15.4375 -21.5 14.09375 -21.5 C 11.9375 -21.5 10.195312 -20.710938 8.875 -19.140625 C 7.550781 -17.566406 6.890625 -15.5625 6.890625 -13.125 C 6.890625 -10.582031 7.503906 -8.539062 8.734375 -7 C 9.972656 -5.457031 11.609375 -4.6875 13.640625 -4.6875 Z M 13.640625 -4.6875 "/></g></g></g><g fill="#373643" fill-opacity="1"><g transform="translate(30.776897, 67.957709)"><g><path d="M 15.75 -26.703125 C 18.28125 -26.703125 20.5 -26.144531 22.40625 -25.03125 C 24.3125 -23.914062 25.785156 -22.351562 26.828125 -20.34375 C 27.878906 -18.34375 28.40625 -16.019531 28.40625 -13.375 C 28.40625 -10.632812 27.878906 -8.21875 26.828125 -6.125 C 25.785156 -4.03125 24.335938 -2.398438 22.484375 -1.234375 C 20.628906 -0.0664062 18.453125 0.515625 15.953125 0.515625 C 14.785156 0.515625 13.515625 0.3125 12.140625 -0.09375 C 10.765625 -0.507812 9.515625 -1.097656 8.390625 -1.859375 L 8.390625 6.015625 C 8.390625 6.878906 8.085938 7.53125 7.484375 7.96875 C 6.890625 8.414062 6.226562 8.640625 5.5 8.640625 C 4.75 8.640625 4.070312 8.414062 3.46875 7.96875 C 2.875 7.53125 2.578125 6.878906 2.578125 6.015625 L 2.578125 -23.5625 C 2.578125 -24.382812 2.84375 -25.023438 3.375 -25.484375 C 3.90625 -25.953125 4.632812 -26.1875 5.5625 -26.1875 C 7.101562 -26.1875 8.007812 -25.585938 8.28125 -24.390625 C 9.476562 -25.242188 10.726562 -25.84375 12.03125 -26.1875 C 13.34375 -26.53125 14.582031 -26.703125 15.75 -26.703125 Z M 15.796875 -4.6875 C 17.816406 -4.6875 19.441406 -5.484375 20.671875 -7.078125 C 21.910156 -8.671875 22.53125 -10.753906 22.53125 -13.328125 C 22.53125 -15.765625 21.867188 -17.734375 20.546875 -19.234375 C 19.234375 -20.742188 17.492188 -21.5 15.328125 -21.5 C 13.960938 -21.5 12.625 -21.144531 11.3125 -20.4375 C 10.007812 -19.738281 9.035156 -18.738281 8.390625 -17.4375 L 8.390625 -8.90625 C 8.929688 -7.5625 9.90625 -6.519531 11.3125 -5.78125 C 12.71875 -5.050781 14.210938 -4.6875 15.796875 -4.6875 Z M 15.796875 -4.6875 "/></g></g></g><g fill="#373643" fill-opacity="1"><g transform="translate(60.722202, 67.957709)"><g><path d="M 15.75 -26.703125 C 18.28125 -26.703125 20.5 -26.144531 22.40625 -25.03125 C 24.3125 -23.914062 25.785156 -22.351562 26.828125 -20.34375 C 27.878906 -18.34375 28.40625 -16.019531 28.40625 -13.375 C 28.40625 -10.632812 27.878906 -8.21875 26.828125 -6.125 C 25.785156 -4.03125 24.335938 -2.398438 22.484375 -1.234375 C 20.628906 -0.0664062 18.453125 0.515625 15.953125 0.515625 C 14.785156 0.515625 13.515625 0.3125 12.140625 -0.09375 C 10.765625 -0.507812 9.515625 -1.097656 8.390625 -1.859375 L 8.390625 6.015625 C 8.390625 6.878906 8.085938 7.53125 7.484375 7.96875 C 6.890625 8.414062 6.226562 8.640625 5.5 8.640625 C 4.75 8.640625 4.070312 8.414062 3.46875 7.96875 C 2.875 7.53125 2.578125 6.878906 2.578125 6.015625 L 2.578125 -23.5625 C 2.578125 -24.382812 2.84375 -25.023438 3.375 -25.484375 C 3.90625 -25.953125 4.632812 -26.1875 5.5625 -26.1875 C 7.101562 -26.1875 8.007812 -25.585938 8.28125 -24.390625 C 9.476562 -25.242188 10.726562 -25.84375 12.03125 -26.1875 C 13.34375 -26.53125 14.582031 -26.703125 15.75 -26.703125 Z M 15.796875 -4.6875 C 17.816406 -4.6875 19.441406 -5.484375 20.671875 -7.078125 C 21.910156 -8.671875 22.53125 -10.753906 22.53125 -13.328125 C 22.53125 -15.765625 21.867188 -17.734375 20.546875 -19.234375 C 19.234375 -20.742188 17.492188 -21.5 15.328125 -21.5 C 13.960938 -21.5 12.625 -21.144531 11.3125 -20.4375 C 10.007812 -19.738281 9.035156 -18.738281 8.390625 -17.4375 L 8.390625 -8.90625 C 8.929688 -7.5625 9.90625 -6.519531 11.3125 -5.78125 C 12.71875 -5.050781 14.210938 -4.6875 15.796875 -4.6875 Z M 15.796875 -4.6875 "/></g></g></g><g fill="#373643" fill-opacity="1"><g transform="translate(90.667507, 67.957709)"><g><path d="M 14.71875 -4.578125 C 15.707031 -4.578125 16.679688 -4.710938 17.640625 -4.984375 C 18.609375 -5.265625 19.503906 -5.726562 20.328125 -6.375 C 21.109375 -7.09375 21.875 -7.425781 22.625 -7.375 C 23.382812 -7.332031 24.015625 -7.0625 24.515625 -6.5625 C 25.015625 -6.0625 25.265625 -5.441406 25.265625 -4.703125 C 25.265625 -3.972656 24.90625 -3.265625 24.1875 -2.578125 C 22.976562 -1.410156 21.550781 -0.59375 19.90625 -0.125 C 18.257812 0.332031 16.582031 0.546875 14.875 0.515625 C 12.195312 0.515625 9.835938 -0.03125 7.796875 -1.125 C 5.753906 -2.226562 4.15625 -3.753906 3 -5.703125 C 1.851562 -7.660156 1.28125 -9.925781 1.28125 -12.5 C 1.28125 -15.3125 1.828125 -17.78125 2.921875 -19.90625 C 4.023438 -22.039062 5.578125 -23.707031 7.578125 -24.90625 C 9.585938 -26.101562 11.96875 -26.703125 14.71875 -26.703125 C 17.457031 -26.703125 19.785156 -26.144531 21.703125 -25.03125 C 23.628906 -23.914062 25.097656 -22.351562 26.109375 -20.34375 C 27.117188 -18.34375 27.625 -16.003906 27.625 -13.328125 C 27.625 -12.472656 27.453125 -11.742188 27.109375 -11.140625 C 26.765625 -10.535156 25.859375 -10.234375 24.390625 -10.234375 L 7.25 -10.234375 C 7.726562 -8.554688 8.632812 -7.191406 9.96875 -6.140625 C 11.3125 -5.097656 12.894531 -4.578125 14.71875 -4.578125 Z M 14.765625 -21.609375 C 12.773438 -21.609375 11.109375 -20.984375 9.765625 -19.734375 C 8.429688 -18.484375 7.578125 -16.84375 7.203125 -14.8125 L 22.171875 -14.8125 C 22.003906 -16.84375 21.335938 -18.484375 20.171875 -19.734375 C 19.003906 -20.984375 17.203125 -21.609375 14.765625 -21.609375 Z M 14.765625 -21.609375 "/></g></g></g><g fill="#373643" fill-opacity="1"><g transform="translate(120.561367, 67.957709)"><g><path d="M 7.671875 -2.578125 C 7.671875 -1.890625 7.382812 -1.285156 6.8125 -0.765625 C 6.25 -0.253906 5.554688 0 4.734375 0 C 3.878906 0 3.175781 -0.253906 2.625 -0.765625 C 2.070312 -1.285156 1.796875 -1.890625 1.796875 -2.578125 L 1.796875 -30.71875 C 1.796875 -31.40625 2.070312 -32.003906 2.625 -32.515625 C 3.175781 -33.035156 3.878906 -33.296875 4.734375 -33.296875 C 5.554688 -33.296875 6.25 -33.035156 6.8125 -32.515625 C 7.382812 -32.003906 7.671875 -31.40625 7.671875 -30.71875 Z M 7.671875 -2.578125 "/></g></g></g><g fill="#373643" fill-opacity="1"><g transform="translate(128.999234, 67.957709)"><g><path d="M 14.71875 -4.578125 C 15.707031 -4.578125 16.679688 -4.710938 17.640625 -4.984375 C 18.609375 -5.265625 19.503906 -5.726562 20.328125 -6.375 C 21.109375 -7.09375 21.875 -7.425781 22.625 -7.375 C 23.382812 -7.332031 24.015625 -7.0625 24.515625 -6.5625 C 25.015625 -6.0625 25.265625 -5.441406 25.265625 -4.703125 C 25.265625 -3.972656 24.90625 -3.265625 24.1875 -2.578125 C 22.976562 -1.410156 21.550781 -0.59375 19.90625 -0.125 C 18.257812 0.332031 16.582031 0.546875 14.875 0.515625 C 12.195312 0.515625 9.835938 -0.03125 7.796875 -1.125 C 5.753906 -2.226562 4.15625 -3.753906 3 -5.703125 C 1.851562 -7.660156 1.28125 -9.925781 1.28125 -12.5 C 1.28125 -15.3125 1.828125 -17.78125 2.921875 -19.90625 C 4.023438 -22.039062 5.578125 -23.707031 7.578125 -24.90625 C 9.585938 -26.101562 11.96875 -26.703125 14.71875 -26.703125 C 17.457031 -26.703125 19.785156 -26.144531 21.703125 -25.03125 C 23.628906 -23.914062 25.097656 -22.351562 26.109375 -20.34375 C 27.117188 -18.34375 27.625 -16.003906 27.625 -13.328125 C 27.625 -12.472656 27.453125 -11.742188 27.109375 -11.140625 C 26.765625 -10.535156 25.859375 -10.234375 24.390625 -10.234375 L 7.25 -10.234375 C 7.726562 -8.554688 8.632812 -7.191406 9.96875 -6.140625 C 11.3125 -5.097656 12.894531 -4.578125 14.71875 -4.578125 Z M 14.765625 -21.609375 C 12.773438 -21.609375 11.109375 -20.984375 9.765625 -19.734375 C 8.429688 -18.484375 7.578125 -16.84375 7.203125 -14.8125 L 22.171875 -14.8125 C 22.003906 -16.84375 21.335938 -18.484375 20.171875 -19.734375 C 19.003906 -20.984375 17.203125 -21.609375 14.765625 -21.609375 Z M 14.765625 -21.609375 "/></g></g></g><g fill="#373643" fill-opacity="1"><g transform="translate(158.893093, 67.957709)"><g><path d="M 0.046875 -22.328125 C -0.191406 -23.015625 -0.203125 -23.648438 0.015625 -24.234375 C 0.242188 -24.816406 0.625 -25.285156 1.15625 -25.640625 C 1.6875 -26.003906 2.242188 -26.1875 2.828125 -26.1875 C 3.441406 -26.1875 3.976562 -26.023438 4.4375 -25.703125 C 4.90625 -25.378906 5.257812 -24.941406 5.5 -24.390625 L 13.375 -8.4375 L 21.25 -24.4375 C 21.5625 -25.050781 21.960938 -25.492188 22.453125 -25.765625 C 22.953125 -26.046875 23.476562 -26.1875 24.03125 -26.1875 C 24.644531 -26.1875 25.203125 -26.023438 25.703125 -25.703125 C 26.203125 -25.378906 26.546875 -24.929688 26.734375 -24.359375 C 26.921875 -23.796875 26.828125 -23.132812 26.453125 -22.375 L 15.953125 -1.078125 C 15.710938 -0.628906 15.351562 -0.253906 14.875 0.046875 C 14.394531 0.359375 13.863281 0.515625 13.28125 0.515625 C 12.144531 0.515625 11.285156 0.015625 10.703125 -0.984375 Z M 0.046875 -22.328125 "/></g></g></g><g fill="#373643" fill-opacity="1"><g transform="translate(185.493947, 67.957709)"><g><path d="M 23.921875 -26.1875 C 24.816406 -26.1875 25.53125 -25.9375 26.0625 -25.4375 C 26.59375 -24.945312 26.859375 -24.304688 26.859375 -23.515625 L 26.859375 -2.671875 C 26.859375 -1.878906 26.59375 -1.234375 26.0625 -0.734375 C 25.53125 -0.242188 24.816406 0 23.921875 0 C 23.066406 0 22.398438 -0.195312 21.921875 -0.59375 C 21.441406 -0.988281 21.148438 -1.507812 21.046875 -2.15625 C 19.878906 -1.226562 18.570312 -0.550781 17.125 -0.125 C 15.6875 0.300781 14.316406 0.515625 13.015625 0.515625 C 10.546875 0.515625 8.410156 -0.046875 6.609375 -1.171875 C 4.804688 -2.304688 3.425781 -3.90625 2.46875 -5.96875 C 1.507812 -8.03125 1.03125 -10.429688 1.03125 -13.171875 C 1.03125 -15.847656 1.5625 -18.195312 2.625 -20.21875 C 3.6875 -22.238281 5.171875 -23.820312 7.078125 -24.96875 C 8.984375 -26.125 11.1875 -26.703125 13.6875 -26.703125 C 14.78125 -26.703125 15.992188 -26.492188 17.328125 -26.078125 C 18.671875 -25.671875 19.910156 -25.019531 21.046875 -24.125 C 21.179688 -24.75 21.488281 -25.25 21.96875 -25.625 C 22.445312 -26 23.097656 -26.1875 23.921875 -26.1875 Z M 13.640625 -4.6875 C 15.148438 -4.6875 16.609375 -5.019531 18.015625 -5.6875 C 19.421875 -6.351562 20.414062 -7.335938 21 -8.640625 L 21 -17.546875 C 20.34375 -18.816406 19.363281 -19.789062 18.0625 -20.46875 C 16.757812 -21.15625 15.4375 -21.5 14.09375 -21.5 C 11.9375 -21.5 10.195312 -20.710938 8.875 -19.140625 C 7.550781 -17.566406 6.890625 -15.5625 6.890625 -13.125 C 6.890625 -10.582031 7.503906 -8.539062 8.734375 -7 C 9.972656 -5.457031 11.609375 -4.6875 13.640625 -4.6875 Z M 13.640625 -4.6875 "/></g></g></g><g fill="#373643" fill-opacity="1"><g transform="translate(215.233444, 67.957709)"><g><path d="M 14.15625 -4.890625 C 14.9375 -5.335938 15.644531 -5.488281 16.28125 -5.34375 C 16.914062 -5.207031 17.429688 -4.90625 17.828125 -4.4375 C 18.222656 -3.976562 18.421875 -3.441406 18.421875 -2.828125 C 18.421875 -2.378906 18.28125 -1.929688 18 -1.484375 C 17.726562 -1.046875 17.300781 -0.671875 16.71875 -0.359375 C 15.96875 0.046875 15.28125 0.289062 14.65625 0.375 C 14.039062 0.46875 13.320312 0.515625 12.5 0.515625 C 10.269531 0.515625 8.554688 0.0507812 7.359375 -0.875 C 6.160156 -1.800781 5.335938 -3 4.890625 -4.46875 C 4.441406 -5.945312 4.21875 -7.507812 4.21875 -9.15625 L 4.21875 -21.296875 L 2.265625 -21.296875 C 1.304688 -21.296875 0.59375 -21.550781 0.125 -22.0625 C -0.332031 -22.582031 -0.5625 -23.132812 -0.5625 -23.71875 C -0.5625 -24.332031 -0.320312 -24.894531 0.15625 -25.40625 C 0.632812 -25.925781 1.335938 -26.1875 2.265625 -26.1875 L 4.21875 -26.1875 L 4.21875 -30.609375 C 4.21875 -31.503906 4.507812 -32.175781 5.09375 -32.625 C 5.675781 -33.070312 6.34375 -33.296875 7.09375 -33.296875 C 7.820312 -33.296875 8.492188 -33.070312 9.109375 -32.625 C 9.722656 -32.175781 10.03125 -31.503906 10.03125 -30.609375 L 10.03125 -26.1875 L 14.046875 -26.1875 C 14.941406 -26.1875 15.628906 -25.925781 16.109375 -25.40625 C 16.585938 -24.894531 16.828125 -24.332031 16.828125 -23.71875 C 16.828125 -23.101562 16.585938 -22.546875 16.109375 -22.046875 C 15.628906 -21.546875 14.941406 -21.296875 14.046875 -21.296875 L 10.03125 -21.296875 L 10.03125 -9.15625 C 10.03125 -8.40625 10.082031 -7.675781 10.1875 -6.96875 C 10.289062 -6.269531 10.519531 -5.6875 10.875 -5.21875 C 11.238281 -4.757812 11.78125 -4.53125 12.5 -4.53125 C 12.78125 -4.53125 13.082031 -4.570312 13.40625 -4.65625 C 13.726562 -4.738281 13.976562 -4.816406 14.15625 -4.890625 Z M 14.15625 -4.890625 "/></g></g></g><g fill="#373643" fill-opacity="1"><g transform="translate(233.087253, 67.957709)"><g><path d="M 14.71875 -4.578125 C 15.707031 -4.578125 16.679688 -4.710938 17.640625 -4.984375 C 18.609375 -5.265625 19.503906 -5.726562 20.328125 -6.375 C 21.109375 -7.09375 21.875 -7.425781 22.625 -7.375 C 23.382812 -7.332031 24.015625 -7.0625 24.515625 -6.5625 C 25.015625 -6.0625 25.265625 -5.441406 25.265625 -4.703125 C 25.265625 -3.972656 24.90625 -3.265625 24.1875 -2.578125 C 22.976562 -1.410156 21.550781 -0.59375 19.90625 -0.125 C 18.257812 0.332031 16.582031 0.546875 14.875 0.515625 C 12.195312 0.515625 9.835938 -0.03125 7.796875 -1.125 C 5.753906 -2.226562 4.15625 -3.753906 3 -5.703125 C 1.851562 -7.660156 1.28125 -9.925781 1.28125 -12.5 C 1.28125 -15.3125 1.828125 -17.78125 2.921875 -19.90625 C 4.023438 -22.039062 5.578125 -23.707031 7.578125 -24.90625 C 9.585938 -26.101562 11.96875 -26.703125 14.71875 -26.703125 C 17.457031 -26.703125 19.785156 -26.144531 21.703125 -25.03125 C 23.628906 -23.914062 25.097656 -22.351562 26.109375 -20.34375 C 27.117188 -18.34375 27.625 -16.003906 27.625 -13.328125 C 27.625 -12.472656 27.453125 -11.742188 27.109375 -11.140625 C 26.765625 -10.535156 25.859375 -10.234375 24.390625 -10.234375 L 7.25 -10.234375 C 7.726562 -8.554688 8.632812 -7.191406 9.96875 -6.140625 C 11.3125 -5.097656 12.894531 -4.578125 14.71875 -4.578125 Z M 14.765625 -21.609375 C 12.773438 -21.609375 11.109375 -20.984375 9.765625 -19.734375 C 8.429688 -18.484375 7.578125 -16.84375 7.203125 -14.8125 L 22.171875 -14.8125 C 22.003906 -16.84375 21.335938 -18.484375 20.171875 -19.734375 C 19.003906 -20.984375 17.203125 -21.609375 14.765625 -21.609375 Z M 14.765625 -21.609375 "/></g></g></g></svg>